<svg id="Layer_1" data-name="Layer 1" xmlns="http://www.w3.org/2000/svg" viewBox="0 0 500 146.46"><defs><style>.cls-1{fill:#003167;}.cls-2{fill:#ff6a00;}</style></defs><polygon class="cls-1" points="102.82 48.93 100.34 38.91 97.9 29.03 87.73 29.03 69.77 29.03 72.2 38.91 90.17 38.91 93.34 51.75 95.08 58.81 123.73 58.81 123.73 48.93 102.82 48.93"/><polygon class="cls-1" points="99.97 78.71 123.73 78.71 123.73 68.83 97.55 68.83 99.97 78.71"/><polygon class="cls-1" points="104.87 98.61 123.73 98.61 123.73 88.73 102.44 88.73 104.87 98.61"/><circle class="cls-2" cx="114.3" cy="112.44" r="4.99"/><polygon class="cls-2" points="96.35 88.73 32.12 98.61 98.78 98.61 96.35 88.73"/><circle class="cls-2" cx="159.66" cy="112.44" r="4.99"/><path class="cls-1" d="M128.67,55.36v38a6.94,6.94,0,0,0,6.94,6.94h26.62a6.94,6.94,0,0,0,6.94-6.94V69.4H148.75v9.88h10.54v11.1H138.55V58.3h20.74v3.42h9.88V55.36a6.94,6.94,0,0,0-6.94-6.94H135.61A6.93,6.93,0,0,0,128.67,55.36Z"/><path class="cls-1" d="M192.93,100.85a16,16,0,0,1-8.64-2.36,15.66,15.66,0,0,1-5.84-6.73,23.51,23.51,0,0,1-2.07-10.2,23.81,23.81,0,0,1,2.11-10.3,16.61,16.61,0,0,1,5.83-7,15.22,15.22,0,0,1,8.61-2.47,14.46,14.46,0,0,1,8,2.21,11.09,11.09,0,0,1,4.73,6l-.89.59V62.8h11v37.46h-11V92.57l.89.15a10.78,10.78,0,0,1-4.73,6A14.84,14.84,0,0,1,192.93,100.85Zm3.25-8.5a7.62,7.62,0,0,0,6.32-2.81q2.25-2.81,2.25-8.12t-2.25-8.17a8.42,8.42,0,0,0-12.71.11c-1.55,2-2.33,4.71-2.33,8.2s.75,6.17,2.26,8A7.84,7.84,0,0,0,196.18,92.35Z"/><path class="cls-1" d="M224.78,100.26V73.51c0-1.77,0-3.56-.11-5.36s-.24-3.58-.48-5.35h10.49l1.18,9.9-1.18-.59a11.72,11.72,0,0,1,4.25-7.61,12.18,12.18,0,0,1,7.65-2.59,10.28,10.28,0,0,1,2.25.22,11.71,11.71,0,0,1,1.74.52l-.08,10.19A13.07,13.07,0,0,0,245,71.59a10,10,0,0,0-5,1.11,7.52,7.52,0,0,0-3,3.14,10.17,10.17,0,0,0-1.07,4.84v19.58Z"/><path class="cls-1" d="M269,100.85a16,16,0,0,1-8.65-2.36,15.64,15.64,0,0,1-5.83-6.73,23.51,23.51,0,0,1-2.07-10.2,24,24,0,0,1,2.1-10.3,16.63,16.63,0,0,1,5.84-7A15.22,15.22,0,0,1,269,61.84a14.51,14.51,0,0,1,8,2.21,11.13,11.13,0,0,1,4.73,6l-.89.59V62.8h11v37.46h-11V92.57l.89.15a10.82,10.82,0,0,1-4.73,6A14.89,14.89,0,0,1,269,100.85Zm3.25-8.5a7.64,7.64,0,0,0,6.32-2.81q2.25-2.81,2.25-8.12t-2.25-8.17a8.42,8.42,0,0,0-12.71.11c-1.55,2-2.33,4.71-2.33,8.2s.75,6.17,2.25,8A7.86,7.86,0,0,0,272.29,92.35Z"/><path class="cls-1" d="M301.77,100.26V47.65h9.16l19,43.37h-4.06l18.92-43.37h9.08v52.61H343.67l-.08-35.54,2.66.66-14.7,34.88h-7.46l-15-34.88,2.81-.66v35.54Z"/><path class="cls-1" d="M378.47,100.85a16,16,0,0,1-8.65-2.36A15.64,15.64,0,0,1,364,91.76a23.51,23.51,0,0,1-2.07-10.2,24,24,0,0,1,2.1-10.3,16.63,16.63,0,0,1,5.84-7,15.22,15.22,0,0,1,8.61-2.47,14.51,14.51,0,0,1,8,2.21,11.09,11.09,0,0,1,4.73,6l-.89.59V62.8h11v37.46h-11V92.57l.89.15a10.78,10.78,0,0,1-4.73,6A14.89,14.89,0,0,1,378.47,100.85Zm3.25-8.5A7.62,7.62,0,0,0,388,89.54q2.25-2.81,2.25-8.12T388,73.25a8.42,8.42,0,0,0-12.71.11c-1.55,2-2.33,4.71-2.33,8.2s.75,6.17,2.26,8A7.83,7.83,0,0,0,381.72,92.35Z"/><path class="cls-1" d="M410.32,100.26V73.51c0-1.77,0-3.56-.11-5.36s-.24-3.58-.48-5.35h10.49l1.18,9.9-1.18-.59a11.68,11.68,0,0,1,4.25-7.61,12.17,12.17,0,0,1,7.64-2.59,10.37,10.37,0,0,1,2.26.22,11.21,11.21,0,0,1,1.73.52L436,72.84a13.11,13.11,0,0,0-5.47-1.25,10,10,0,0,0-5,1.11,7.52,7.52,0,0,0-3,3.14,10.17,10.17,0,0,0-1.08,4.84v19.58Z"/><path class="cls-1" d="M440.09,71.15V62.8h27.79v8.35Zm27.79,20.09v8.58a14.86,14.86,0,0,1-3.11.81,23.13,23.13,0,0,1-3.32.22q-6.94,0-10.61-3.95t-3.65-11V54l11.15-3.62V85.7a6.69,6.69,0,0,0,.82,3.55,4.47,4.47,0,0,0,2.14,1.88,7.43,7.43,0,0,0,2.88.56,14.26,14.26,0,0,0,1.74-.11C466.48,91.5,467.14,91.39,467.88,91.24Z"/></svg>